<mxfile host="65bd71144e">
    <diagram id="CgLSC6A_80A0bIQbenY6" name="Page-1">
        <mxGraphModel dx="1134" dy="505" grid="1" gridSize="10" guides="1" tooltips="1" connect="1" arrows="1" fold="1" page="1" pageScale="1" pageWidth="827" pageHeight="1169" math="0" shadow="0">
            <root>
                <mxCell id="0"/>
                <mxCell id="1" parent="0"/>
                <mxCell id="4" value="" style="edgeStyle=none;html=1;" parent="1" source="2" target="3" edge="1">
                    <mxGeometry relative="1" as="geometry"/>
                </mxCell>
                <mxCell id="2" value="Start" style="ellipse;whiteSpace=wrap;html=1;" parent="1" vertex="1">
                    <mxGeometry x="270" y="10" width="120" height="30" as="geometry"/>
                </mxCell>
                <mxCell id="7" value="" style="edgeStyle=none;html=1;" edge="1" parent="1" source="3" target="6">
                    <mxGeometry relative="1" as="geometry"/>
                </mxCell>
                <mxCell id="3" value="select input = 0" style="whiteSpace=wrap;html=1;" parent="1" vertex="1">
                    <mxGeometry x="270" y="70" width="120" height="20" as="geometry"/>
                </mxCell>
                <mxCell id="9" value="Yes" style="edgeStyle=none;html=1;entryX=0.5;entryY=0;entryDx=0;entryDy=0;" edge="1" parent="1" source="6" target="8">
                    <mxGeometry x="-0.5" y="20" relative="1" as="geometry">
                        <Array as="points">
                            <mxPoint x="330" y="220"/>
                        </Array>
                        <mxPoint as="offset"/>
                    </mxGeometry>
                </mxCell>
                <mxCell id="12" value="No" style="edgeStyle=none;html=1;entryX=0.5;entryY=0;entryDx=0;entryDy=0;" edge="1" parent="1" source="6" target="17">
                    <mxGeometry x="-0.8947" y="20" relative="1" as="geometry">
                        <mxPoint x="331.13489658738035" y="410.2140692864232" as="targetPoint"/>
                        <Array as="points">
                            <mxPoint x="460" y="160"/>
                            <mxPoint x="460" y="360"/>
                            <mxPoint x="330" y="360"/>
                            <mxPoint x="330" y="380"/>
                        </Array>
                        <mxPoint as="offset"/>
                    </mxGeometry>
                </mxCell>
                <mxCell id="6" value="while&lt;br&gt;select != 1 | 2" style="rhombus;whiteSpace=wrap;html=1;" vertex="1" parent="1">
                    <mxGeometry x="275" y="110" width="110" height="100" as="geometry"/>
                </mxCell>
                <mxCell id="15" style="edgeStyle=none;html=1;entryX=0;entryY=0.5;entryDx=0;entryDy=0;" edge="1" parent="1" source="8" target="6">
                    <mxGeometry relative="1" as="geometry">
                        <Array as="points">
                            <mxPoint x="330" y="330"/>
                            <mxPoint x="330" y="340"/>
                            <mxPoint x="200" y="340"/>
                            <mxPoint x="200" y="160"/>
                        </Array>
                    </mxGeometry>
                </mxCell>
                <mxCell id="8" value="какой массив &lt;br&gt;будем использовать?&lt;br&gt;1: Ввод с клавиатуры&lt;br&gt;2: Заданный программой&lt;br&gt;select input =" style="shape=parallelogram;perimeter=parallelogramPerimeter;whiteSpace=wrap;html=1;fixedSize=1;" vertex="1" parent="1">
                    <mxGeometry x="230" y="230" width="200" height="80" as="geometry"/>
                </mxCell>
                <mxCell id="19" value="Yes" style="edgeStyle=none;html=1;fontSize=12;" edge="1" parent="1" source="17" target="20">
                    <mxGeometry x="-0.3333" y="20" relative="1" as="geometry">
                        <mxPoint x="330" y="490" as="targetPoint"/>
                        <mxPoint as="offset"/>
                    </mxGeometry>
                </mxCell>
                <mxCell id="22" value="No" style="edgeStyle=none;html=1;fontSize=12;" edge="1" parent="1" source="17" target="21">
                    <mxGeometry x="-0.6667" y="10" relative="1" as="geometry">
                        <Array as="points">
                            <mxPoint x="550" y="420"/>
                        </Array>
                        <mxPoint as="offset"/>
                    </mxGeometry>
                </mxCell>
                <mxCell id="17" value="&lt;font style=&quot;font-size: 12px&quot;&gt;select = 1&lt;/font&gt;" style="rhombus;whiteSpace=wrap;html=1;fontSize=20;" vertex="1" parent="1">
                    <mxGeometry x="290" y="380" width="80" height="80" as="geometry"/>
                </mxCell>
                <mxCell id="26" value="" style="edgeStyle=none;html=1;fontSize=12;" edge="1" parent="1" source="20" target="25">
                    <mxGeometry relative="1" as="geometry"/>
                </mxCell>
                <mxCell id="20" value="Введите элементы массива&lt;br&gt;&amp;nbsp;через запятую" style="shape=parallelogram;perimeter=parallelogramPerimeter;whiteSpace=wrap;html=1;fixedSize=1;fontSize=12;" vertex="1" parent="1">
                    <mxGeometry x="230" y="490" width="200" height="60" as="geometry"/>
                </mxCell>
                <mxCell id="31" style="edgeStyle=none;html=1;entryX=0.5;entryY=0;entryDx=0;entryDy=0;fontSize=12;" edge="1" parent="1" source="21" target="36">
                    <mxGeometry relative="1" as="geometry">
                        <Array as="points">
                            <mxPoint x="550" y="670"/>
                            <mxPoint x="330" y="670"/>
                        </Array>
                    </mxGeometry>
                </mxCell>
                <mxCell id="21" value="&lt;span style=&quot;font-size: 12px&quot;&gt;massive = [&quot;abc&quot;, ...]&lt;/span&gt;" style="whiteSpace=wrap;html=1;fontSize=20;" vertex="1" parent="1">
                    <mxGeometry x="490" y="540" width="120" height="40" as="geometry"/>
                </mxCell>
                <mxCell id="29" style="edgeStyle=none;html=1;exitX=0.5;exitY=1;exitDx=0;exitDy=0;fontSize=12;entryX=0.5;entryY=0;entryDx=0;entryDy=0;" edge="1" parent="1" source="25" target="36">
                    <mxGeometry relative="1" as="geometry">
                        <mxPoint x="330" y="660" as="targetPoint"/>
                    </mxGeometry>
                </mxCell>
                <mxCell id="25" value="massive = string.split(&quot;,&quot;)&lt;br&gt;.ToArray()" style="whiteSpace=wrap;html=1;" vertex="1" parent="1">
                    <mxGeometry x="270" y="580" width="120" height="60" as="geometry"/>
                </mxCell>
                <mxCell id="39" value="" style="edgeStyle=none;html=1;fontSize=12;" edge="1" parent="1" source="34" target="38">
                    <mxGeometry relative="1" as="geometry"/>
                </mxCell>
                <mxCell id="34" value="Print rezult" style="shape=parallelogram;perimeter=parallelogramPerimeter;whiteSpace=wrap;html=1;fixedSize=1;fontSize=12;" vertex="1" parent="1">
                    <mxGeometry x="270" y="1120" width="120" height="40" as="geometry"/>
                </mxCell>
                <mxCell id="36" value="rezult = StringEmpty&lt;br&gt;count = 0&amp;nbsp;" style="rounded=0;whiteSpace=wrap;html=1;fontSize=12;" vertex="1" parent="1">
                    <mxGeometry x="270" y="700" width="120" height="30" as="geometry"/>
                </mxCell>
                <mxCell id="38" value="End" style="ellipse;whiteSpace=wrap;html=1;" vertex="1" parent="1">
                    <mxGeometry x="270" y="1190" width="120" height="30" as="geometry"/>
                </mxCell>
                <mxCell id="41" value="" style="strokeWidth=2;html=1;shape=mxgraph.flowchart.annotation_2;align=left;labelPosition=right;pointerEvents=1;fontSize=12;dashed=1;" vertex="1" parent="1">
                    <mxGeometry x="610" y="685" width="50" height="80" as="geometry"/>
                </mxCell>
                <mxCell id="44" value="&lt;span&gt;function select&lt;br&gt;&amp;nbsp;elements&lt;br&gt;&amp;nbsp;max three char &lt;br&gt;from massive&lt;/span&gt;" style="text;html=1;align=center;verticalAlign=middle;resizable=0;points=[];autosize=1;strokeColor=none;fillColor=none;fontSize=12;" vertex="1" parent="1">
                    <mxGeometry x="640" y="695" width="100" height="60" as="geometry"/>
                </mxCell>
                <mxCell id="48" value="" style="edgeStyle=none;html=1;fontSize=12;endArrow=classic;endFill=1;strokeWidth=1;exitX=0.5;exitY=1;exitDx=0;exitDy=0;" edge="1" parent="1" source="36" target="47">
                    <mxGeometry relative="1" as="geometry">
                        <mxPoint x="330" y="760" as="sourcePoint"/>
                    </mxGeometry>
                </mxCell>
                <mxCell id="50" value="" style="edgeStyle=none;html=1;fontSize=12;endArrow=classic;endFill=1;strokeWidth=1;" edge="1" parent="1" source="47" target="49">
                    <mxGeometry relative="1" as="geometry"/>
                </mxCell>
                <mxCell id="57" value="" style="edgeStyle=none;html=1;fontSize=12;endArrow=classic;endFill=1;strokeWidth=1;entryX=0.5;entryY=0;entryDx=0;entryDy=0;" edge="1" parent="1" source="47" target="34">
                    <mxGeometry relative="1" as="geometry">
                        <mxPoint x="330" y="1019" as="targetPoint"/>
                        <Array as="points">
                            <mxPoint x="590" y="775"/>
                            <mxPoint x="590" y="1100"/>
                            <mxPoint x="330" y="1100"/>
                        </Array>
                    </mxGeometry>
                </mxCell>
                <mxCell id="47" value="for i = 0; &lt;br&gt;i &amp;lt; size massive;&lt;br&gt;i ++" style="shape=hexagon;perimeter=hexagonPerimeter2;whiteSpace=wrap;html=1;fixedSize=1;" vertex="1" parent="1">
                    <mxGeometry x="265" y="750" width="130" height="50" as="geometry"/>
                </mxCell>
                <mxCell id="52" value="Yes" style="edgeStyle=none;html=1;fontSize=12;endArrow=classic;endFill=1;strokeWidth=1;startArrow=none;" edge="1" parent="1" source="60" target="51">
                    <mxGeometry y="20" relative="1" as="geometry">
                        <mxPoint as="offset"/>
                    </mxGeometry>
                </mxCell>
                <mxCell id="53" value="No" style="edgeStyle=none;html=1;entryX=0;entryY=0.5;entryDx=0;entryDy=0;fontSize=12;endArrow=classic;endFill=1;strokeWidth=1;" edge="1" parent="1" source="49" target="47">
                    <mxGeometry x="-0.8889" y="-10" relative="1" as="geometry">
                        <Array as="points">
                            <mxPoint x="230" y="860"/>
                            <mxPoint x="230" y="775"/>
                        </Array>
                        <mxPoint as="offset"/>
                    </mxGeometry>
                </mxCell>
                <mxCell id="49" value="item [ i ] Length &amp;lt; 4" style="rhombus;whiteSpace=wrap;html=1;" vertex="1" parent="1">
                    <mxGeometry x="290" y="820" width="80" height="80" as="geometry"/>
                </mxCell>
                <mxCell id="54" style="edgeStyle=none;html=1;entryX=0;entryY=0.5;entryDx=0;entryDy=0;fontSize=12;endArrow=classic;endFill=1;strokeWidth=1;" edge="1" parent="1" source="51" target="47">
                    <mxGeometry relative="1" as="geometry">
                        <Array as="points">
                            <mxPoint x="330" y="1080"/>
                            <mxPoint x="230" y="1080"/>
                            <mxPoint x="230" y="775"/>
                        </Array>
                    </mxGeometry>
                </mxCell>
                <mxCell id="51" value="rezult&amp;nbsp; = item [ i ] ;&lt;br&gt;count += 1" style="whiteSpace=wrap;html=1;" vertex="1" parent="1">
                    <mxGeometry x="250" y="1025" width="160" height="30" as="geometry"/>
                </mxCell>
                <mxCell id="59" value="" style="rounded=1;whiteSpace=wrap;html=1;dashed=1;fontSize=12;fillColor=none;strokeWidth=2;shadow=0;" vertex="1" parent="1">
                    <mxGeometry x="190" y="685" width="420" height="405" as="geometry"/>
                </mxCell>
                <mxCell id="63" value="No" style="edgeStyle=none;html=1;exitX=1;exitY=0.5;exitDx=0;exitDy=0;exitPerimeter=0;entryX=0;entryY=0.5;entryDx=0;entryDy=0;fontSize=12;endArrow=classic;endFill=0;strokeWidth=1;" edge="1" parent="1" source="60" target="62">
                    <mxGeometry x="-0.2308" y="15" relative="1" as="geometry">
                        <mxPoint as="offset"/>
                    </mxGeometry>
                </mxCell>
                <mxCell id="60" value="count = 0" style="strokeWidth=2;html=1;shape=mxgraph.flowchart.decision;whiteSpace=wrap;rounded=1;shadow=0;fontSize=12;fillColor=none;" vertex="1" parent="1">
                    <mxGeometry x="285" y="920" width="90" height="70" as="geometry"/>
                </mxCell>
                <mxCell id="61" value="No" style="edgeStyle=none;html=1;fontSize=12;endArrow=classic;endFill=0;strokeWidth=1;" edge="1" parent="1" source="49" target="60">
                    <mxGeometry y="20" relative="1" as="geometry">
                        <mxPoint x="330" y="900" as="sourcePoint"/>
                        <mxPoint x="330" y="1025" as="targetPoint"/>
                        <mxPoint as="offset"/>
                    </mxGeometry>
                </mxCell>
                <mxCell id="64" style="edgeStyle=none;html=1;entryX=0;entryY=0.5;entryDx=0;entryDy=0;fontSize=12;endArrow=classic;endFill=0;strokeWidth=1;" edge="1" parent="1" source="62" target="47">
                    <mxGeometry relative="1" as="geometry">
                        <Array as="points">
                            <mxPoint x="494" y="1080"/>
                            <mxPoint x="230" y="1080"/>
                            <mxPoint x="230" y="775"/>
                        </Array>
                    </mxGeometry>
                </mxCell>
                <mxCell id="62" value="rezult&amp;nbsp; += &quot;,&quot; + item [ i ]" style="whiteSpace=wrap;html=1;" vertex="1" parent="1">
                    <mxGeometry x="414" y="940" width="160" height="30" as="geometry"/>
                </mxCell>
            </root>
        </mxGraphModel>
    </diagram>
</mxfile>